<svg width="1489" height="749" viewBox="0 0 1489 749" fill="none" xmlns="http://www.w3.org/2000/svg">
<path fill-rule="evenodd" clip-rule="evenodd" d="M1467.17 39.6139C1296 -48.2109 1145.55 27.4733 1048.25 97.8857C1023.64 115.697 1001.79 133.609 983.343 149.07C978.801 152.878 974.547 156.466 970.552 159.836C968.476 161.588 966.469 163.28 964.529 164.914C961.967 159.337 958.15 153.556 952.415 148.503C937.955 135.761 920.916 135.638 909.825 138.154C899.796 140.43 891.462 145.307 885.871 149.046C874.307 156.781 862.236 168.149 851.478 178.954C842.232 188.24 832.318 198.809 822.698 209.065C820.73 211.163 818.773 213.248 816.838 215.307C805.133 227.755 793.959 239.466 783.591 249.311C782.778 250.083 781.981 250.833 781.2 251.561C779.242 245.301 776.435 239.099 772.394 233.402C766.921 225.683 759.157 218.884 749.005 214.885C739.183 211.016 729.689 210.773 721.978 211.85C706.565 213.969 693.206 222.113 684.926 227.648C675.561 233.908 665.818 241.714 657.322 248.549C640.236 262.295 627.509 272.362 617.44 277.552C615.74 272.658 613.806 265.017 612.276 253.568C609.99 236.459 608.886 213.088 609.693 181.764L609.694 181.757C610.142 164.258 609.7 148.848 608.094 135.768C606.58 123.432 603.649 109.648 596.842 97.8309C589.067 84.3327 574.344 71.0019 552.549 70.4906C534.932 70.0773 520.998 78.5961 512.94 84.5391C496.054 96.9919 478.855 118.128 462.582 140.506C445.515 163.975 426.472 193.119 406.17 225.089C395.173 242.407 383.77 260.607 371.996 279.398L371.994 279.401C352.148 311.077 331.249 344.435 309.46 378.085C293.809 376.948 279.17 376.071 266.44 375.309L266.437 375.308C260.482 374.952 254.945 374.62 249.917 374.299C246.582 374.085 243.49 373.878 240.633 373.672C258.644 344.471 280.685 305.689 296.045 268.275C305.497 245.252 313.599 219.98 315.431 196.41C317.208 173.538 313.532 142.199 286.751 121.788C271.503 110.146 254.008 104.813 236.067 105.657C219.06 106.458 204.09 112.662 192.054 119.822C168.579 133.787 148.422 156.141 133.663 175.144L133.655 175.154C108.235 207.866 89.2953 244.701 76.9411 283.76L76.9372 283.772C56.5085 348.22 15.608 484.951 3.54789 585.175C0.51094 610.413 -0.920363 634.993 0.744902 656.367C2.2722 675.97 6.88584 700.84 23.0039 719.007C32.0006 729.147 44.0767 736.568 58.6243 739.277C72.4923 741.859 85.815 739.658 97.4035 735.679C119.643 728.044 142.88 711.293 167.153 688.983L167.164 688.973C225.23 635.563 281.878 561.003 333.341 485.539C338.847 477.466 344.316 469.348 349.742 461.209C391.372 465.577 435.988 472.474 476.883 484.327C531.552 500.171 572.819 522.975 594.406 553.627C613.83 581.207 622.902 623.43 593.928 694.049C585.615 714.308 595.3 737.469 615.559 745.782C635.818 754.094 658.98 744.409 667.292 724.15C703.3 636.389 698.615 563.875 659.242 507.967C622.031 455.131 559.463 425.697 498.958 408.161C465.709 398.525 431.017 391.904 397.814 387.209C412.411 364.261 426.5 341.774 439.931 320.337L439.938 320.325C451.517 301.844 462.607 284.144 473.113 267.6C493.293 235.821 511.214 208.464 526.717 187.145C527.962 185.433 529.176 183.781 530.359 182.19C529.603 214.882 530.719 241.948 533.675 264.071C536.647 286.315 541.785 306.044 550.633 321.875C560.008 338.651 574.56 352.535 594.975 357.634C613.894 362.358 631.311 357.822 643.831 352.655C665.92 343.539 688.198 325.543 703.74 312.989L703.758 312.975C704.885 312.064 705.978 311.182 707.032 310.334C708.268 309.34 709.467 308.377 710.632 307.445C711.173 309.174 711.774 310.887 712.443 312.578C716.45 322.717 723.793 334.225 736.846 341.65C763.142 356.607 789.225 343.457 799.603 337.403C813.034 329.568 826.411 318.007 838.198 306.814C850.368 295.257 862.917 282.065 874.61 269.629C876.689 267.418 878.736 265.236 880.753 263.086L880.809 263.026L880.815 263.02C886.341 257.131 891.639 251.483 896.729 246.156C902.286 256.217 912.097 266.188 928.201 269.399C944.904 272.73 959 266.138 964.946 263.112C972.56 259.238 980.081 254.006 986.796 248.949C997.228 241.095 1009.77 230.514 1023.01 219.341C1026.72 216.205 1030.49 213.022 1034.29 209.839C1052.26 194.773 1072.42 178.281 1094.74 162.129C1185.18 96.6849 1301.13 43.5488 1430.98 110.169C1450.46 120.166 1474.36 112.475 1484.35 92.9915C1494.35 73.5081 1486.66 49.6101 1467.17 39.6139ZM928.979 192.438C927.925 192.975 928.02 192.79 929.045 192.405L928.979 192.438ZM931.233 214.179C931.233 214.182 931.173 214.215 931.056 214.272C931.176 214.205 931.234 214.176 931.233 214.179ZM244.855 453.437C249.253 453.718 253.837 453.996 258.606 454.283C210.827 523.327 161.56 586.38 113.49 630.598C98.8597 644.045 87.9932 651.96 80.4588 656.394C80.2136 654.607 79.9882 652.554 79.8053 650.207C78.7152 636.216 79.5376 617.439 82.2799 594.649C93.3363 502.766 131.959 372.631 152.534 307.722L152.543 307.695C162.191 277.182 176.86 248.79 196.278 223.805L196.285 223.795C209.262 207.086 222.085 194.228 232.596 187.975C234.179 187.033 235.488 186.376 236.537 185.918C236.548 187.081 236.505 188.516 236.369 190.266C235.482 201.683 230.955 218.017 222.687 238.158C206.387 277.86 180.095 321.671 161.621 350.292C137.714 387.252 156.963 435.621 197.969 447.707L198.048 447.73C205.041 449.775 213.177 450.799 219.743 451.477C227.017 452.228 235.611 452.846 244.855 453.437ZM70.0269 661.136C70.0269 661.136 70.0434 661.132 70.0751 661.128C70.0426 661.134 70.0269 661.136 70.0269 661.136ZM236.178 182.04C236.047 181.77 236.007 181.606 236.019 181.592C236.032 181.578 236.098 181.713 236.178 182.04ZM561.235 147.553C561.233 147.568 561.063 147.681 560.733 147.849C561.074 147.623 561.238 147.539 561.235 147.553ZM610.542 280.359C610.542 280.359 610.575 280.352 610.638 280.344C610.573 280.357 610.542 280.359 610.542 280.359Z" fill="#FFB629" fill-opacity="0.15"/>
</svg>
