<svg width="314" height="137" viewBox="0 0 314 137" fill="none" xmlns="http://www.w3.org/2000/svg">
<rect x="6.80762" y="9.82861" width="147.08" height="114.395" rx="6.5293" fill="#8843B8"/>
<path d="M64.2582 95.3083V93.3077H53.9722V95.3083H58.0441V105.86H60.1686V95.3083H64.2582ZM63.7883 103.523C63.7883 104.886 64.9037 106.125 66.7095 106.125C68.1081 106.125 68.9579 105.417 69.3651 104.762C69.3651 105.453 69.4359 105.807 69.4536 105.86H71.3657C71.348 105.771 71.2594 105.258 71.2594 104.479V100.195C71.2594 98.4773 70.2503 96.9724 67.5947 96.9724C65.4702 96.9724 64.1247 98.3002 63.9654 99.7874L65.842 100.212C65.9305 99.3448 66.5325 98.6543 67.6124 98.6543C68.7455 98.6543 69.2412 99.2386 69.2412 99.9644C69.2412 100.265 69.0995 100.513 68.6038 100.584L66.3908 100.92C64.9214 101.133 63.7883 101.983 63.7883 103.523ZM67.099 104.514C66.2846 104.514 65.842 103.983 65.842 103.399C65.842 102.691 66.3554 102.337 66.9928 102.231L69.2412 101.894V102.284C69.2412 103.966 68.2498 104.514 67.099 104.514ZM75.7426 105.86V104.709C76.2383 105.541 77.1766 106.072 78.3982 106.072C80.9121 106.072 82.4524 104.107 82.4524 101.505C82.4524 98.973 81.0538 97.0079 78.469 97.0079C77.1412 97.0079 76.1498 97.6275 75.7603 98.3002V93.0421H73.742V105.86H75.7426ZM80.381 101.522C80.381 103.222 79.4073 104.249 78.0618 104.249C76.7517 104.249 75.7426 103.222 75.7426 101.522C75.7426 99.8051 76.7517 98.8314 78.0618 98.8314C79.425 98.8314 80.381 99.8051 80.381 101.522ZM86.4803 105.86V93.0421H84.4267V105.86H86.4803ZM90.5633 100.602C90.6341 99.6812 91.3777 98.6897 92.6701 98.6897C94.0864 98.6897 94.7592 99.5926 94.7946 100.602H90.5633ZM95.0247 102.85C94.7415 103.7 94.1041 104.355 92.8648 104.355C91.5902 104.355 90.5633 103.417 90.5102 102.107H96.8128C96.8306 102.071 96.866 101.788 96.866 101.452C96.866 98.7251 95.308 96.9724 92.6524 96.9724C90.4748 96.9724 88.4565 98.7783 88.4565 101.505C88.4565 104.426 90.5279 106.125 92.8648 106.125C94.9362 106.125 96.2994 104.904 96.7597 103.399L95.0247 102.85ZM98.0672 103.523C98.1734 104.497 99.1294 106.125 101.626 106.125C103.821 106.125 104.883 104.674 104.883 103.364C104.883 102.089 104.033 101.097 102.405 100.743L101.095 100.478C100.563 100.372 100.227 100.035 100.227 99.5749C100.227 99.0438 100.741 98.5835 101.466 98.5835C102.617 98.5835 102.989 99.3802 103.06 99.8759L104.795 99.3802C104.653 98.5304 103.874 96.9724 101.466 96.9724C99.6783 96.9724 98.2974 98.2471 98.2974 99.752C98.2974 100.938 99.094 101.93 100.617 102.266L101.891 102.549C102.582 102.691 102.9 103.045 102.9 103.505C102.9 104.036 102.458 104.497 101.608 104.497C100.51 104.497 99.9261 103.806 99.8553 103.027L98.0672 103.523Z" fill="#8843B8"/>
<rect width="45.2655" height="45.2655" transform="translate(57.7148 30.1099)" fill="#8843B8"/>
<path d="M60.9673 75.3746C58.4142 75.3746 57.7175 74.6868 57.7172 72.1225C57.7139 49.1262 57.7142 56.3066 57.717 33.3102C57.7172 30.8627 58.4529 30.1149 60.9147 30.1144C83.9295 30.1084 76.7673 30.1084 99.7821 30.1144C102.209 30.1149 102.977 30.8921 102.977 33.3292C102.981 56.3255 102.981 49.1451 102.978 72.1414C102.977 74.677 102.258 75.3743 99.6976 75.3746C88.1904 75.3759 91.7713 75.3751 80.2641 75.3751C68.8023 75.3751 72.4291 75.3759 60.9673 75.3746ZM98.9283 72.1421C99.3805 72.1421 99.7471 71.7755 99.7471 71.3233V62.5053C99.7471 62.0531 99.3805 61.6865 98.9283 61.6865H90.1103C89.6581 61.6865 89.2915 62.0531 89.2915 62.5053V71.3233C89.2915 71.7755 89.6581 72.1421 90.1103 72.1421H98.9283ZM75.9386 72.1421H84.7566C85.2088 72.1421 85.5754 71.7755 85.5754 71.3233V62.5053C85.5754 62.0531 85.2088 61.6865 84.7566 61.6865H75.9386C75.4864 61.6865 75.1198 62.0531 75.1198 62.5053V71.3233C75.1198 71.7755 75.4864 72.1421 75.9386 72.1421ZM61.7669 72.1421H70.5848C71.037 72.1421 71.4037 71.7755 71.4037 71.3233V62.5053C71.4037 62.0531 71.037 61.6865 70.5848 61.6865H61.7669C61.3147 61.6865 60.9481 62.0531 60.9481 62.5053V71.3233C60.9481 71.7755 61.3147 72.1421 61.7669 72.1421ZM90.1103 57.9704H98.9283C99.3805 57.9704 99.7471 57.6038 99.7471 57.1516V48.3336C99.7471 47.8814 99.3805 47.5148 98.9283 47.5148H90.1103C89.6581 47.5148 89.2915 47.8814 89.2915 48.3336V57.1516C89.2915 57.6038 89.6581 57.9704 90.1103 57.9704ZM75.9386 57.9704H84.7566C85.2088 57.9704 85.5754 57.6038 85.5754 57.1516V48.3336C85.5754 47.8814 85.2088 47.5148 84.7566 47.5148H75.9386C75.4864 47.5148 75.1198 47.8814 75.1198 48.3336V57.1516C75.1198 57.6038 75.4864 57.9704 75.9386 57.9704ZM61.7669 57.9704H70.5848C71.037 57.9704 71.4037 57.6038 71.4037 57.1516V48.3336C71.4037 47.8814 71.037 47.5148 70.5848 47.5148H61.7669C61.3147 47.5148 60.9481 47.8814 60.9481 48.3336V57.1516C60.9481 57.6038 61.3147 57.9704 61.7669 57.9704ZM75.9386 43.7987H84.7566C85.2088 43.7987 85.5754 43.5773 85.5754 43.3042V37.9786C85.5754 37.7055 85.2088 37.4841 84.7566 37.4841H75.9386C75.4864 37.4841 75.1198 37.7055 75.1198 37.9786V43.3042C75.1198 43.5773 75.4864 43.7987 75.9386 43.7987ZM90.0841 43.7987H98.902C99.3542 43.7987 99.7208 43.5773 99.7208 43.3042V37.9786C99.7208 37.7055 99.3542 37.4841 98.902 37.4841H90.0841C89.6319 37.4841 89.2652 37.7055 89.2652 37.9786V43.3042C89.2652 43.5773 89.6319 43.7987 90.0841 43.7987ZM61.7669 43.7987H70.5848C71.037 43.7987 71.4037 43.5773 71.4037 43.3042V37.9786C71.4037 37.7055 71.037 37.4841 70.5848 37.4841H61.7669C61.3147 37.4841 60.9481 37.7055 60.9481 37.9786V43.3042C60.9481 43.5773 61.3147 43.7987 61.7669 43.7987Z" fill="white"/>
<rect x="60.2295" y="33.8818" width="40.236" height="38.9786" fill="white"/>
<path d="M89.1484 37.9053C89.1484 37.072 89.824 36.3965 90.6573 36.3965H98.2112C99.0446 36.3965 99.7201 37.072 99.7201 37.9053V42.4319C99.7201 43.2652 99.0446 43.9407 98.2112 43.9407H90.6573C89.824 43.9407 89.1484 43.2652 89.1484 42.4319V37.9053Z" fill="#FFB629"/>
<path d="M89.1484 49.2217C89.1484 48.3884 89.824 47.7129 90.6573 47.7129H97.6986C98.5319 47.7129 99.2074 48.3884 99.2074 49.2217V56.263C99.2074 57.0964 98.5319 57.7719 97.6986 57.7719H90.6573C89.824 57.7719 89.1484 57.0964 89.1484 56.263V49.2217Z" fill="#FFB629"/>
<path d="M89.1484 63.0528C89.1484 62.2195 89.824 61.5439 90.6573 61.5439H97.6986C98.5319 61.5439 99.2074 62.2195 99.2074 63.0528V70.0941C99.2074 70.9274 98.5319 71.6029 97.6986 71.6029H90.6573C89.824 71.6029 89.1484 70.9274 89.1484 70.0941V63.0528Z" fill="#FFB629"/>
<path d="M75.1196 37.9053C75.1196 37.072 75.7951 36.3965 76.6284 36.3965H84.3799C85.2132 36.3965 85.8888 37.072 85.8888 37.9053V42.4319C85.8888 43.2652 85.2132 43.9407 84.3799 43.9407H76.6284C75.7951 43.9407 75.1196 43.2652 75.1196 42.4319V37.9053Z" fill="#FF6100"/>
<path d="M75.3164 49.2217C75.3164 48.3884 75.9919 47.7129 76.8252 47.7129H83.8666C84.6999 47.7129 85.3754 48.3884 85.3754 49.2217V56.263C85.3754 57.0964 84.6999 57.7719 83.8666 57.7719H76.8252C75.9919 57.7719 75.3164 57.0964 75.3164 56.263V49.2217Z" fill="#FF6100"/>
<path d="M75.3164 63.0528C75.3164 62.2195 75.9919 61.5439 76.8252 61.5439H83.8666C84.6999 61.5439 85.3754 62.2195 85.3754 63.0528V70.0941C85.3754 70.9274 84.6999 71.6029 83.8666 71.6029H76.8252C75.9919 71.6029 75.3164 70.9274 75.3164 70.0941V63.0528Z" fill="#FF6100"/>
<path d="M60.8579 37.9053C60.8579 37.072 61.5334 36.3965 62.3668 36.3965H70.0367C70.8701 36.3965 71.5456 37.072 71.5456 37.9053V42.4319C71.5456 43.2652 70.8701 43.9407 70.0367 43.9407H62.3668C61.5334 43.9407 60.8579 43.2652 60.8579 42.4319V37.9053Z" fill="#0099FF"/>
<path d="M60.8579 49.2217C60.8579 48.3884 61.5334 47.7129 62.3668 47.7129H70.0367C70.8701 47.7129 71.5456 48.3884 71.5456 49.2217V56.263C71.5456 57.0964 70.8701 57.7719 70.0367 57.7719H62.3668C61.5334 57.7719 60.8579 57.0964 60.8579 56.263V52.7424V49.2217Z" fill="#0099FF"/>
<path d="M60.8579 63.0528C60.8579 62.2195 61.5334 61.5439 62.3668 61.5439H70.0367C70.8701 61.5439 71.5456 62.2195 71.5456 63.0528V70.0941C71.5456 70.9274 70.8701 71.6029 70.0367 71.6029H62.3668C61.5334 71.6029 60.8579 70.9274 60.8579 70.0941V66.5734V63.0528Z" fill="#0099FF"/>
<rect x="166.144" y="9.82861" width="147.08" height="114.395" rx="6.5293" fill="#8843B8"/>
<path d="M188.564 107.368H190.972L188.139 102.199C189.892 101.774 190.972 100.41 190.972 98.6224C190.972 96.4979 189.467 94.816 187.042 94.816H182.226V107.368H184.368V102.411H185.926L188.564 107.368ZM184.368 100.534V96.6926H186.652C187.962 96.6926 188.812 97.4539 188.812 98.6224C188.812 99.7731 187.962 100.534 186.652 100.534H184.368ZM194.202 102.11C194.273 101.189 195.017 100.198 196.309 100.198C197.726 100.198 198.398 101.101 198.434 102.11H194.202ZM198.664 104.358C198.381 105.208 197.743 105.863 196.504 105.863C195.229 105.863 194.202 104.925 194.149 103.615H200.452C200.47 103.58 200.505 103.296 200.505 102.96C200.505 100.233 198.947 98.4807 196.292 98.4807C194.114 98.4807 192.096 100.287 192.096 103.013C192.096 105.934 194.167 107.634 196.504 107.634C198.575 107.634 199.939 106.412 200.399 104.907L198.664 104.358ZM204.504 110.732V106.394C204.946 107.049 205.885 107.581 207.124 107.581C209.602 107.581 211.178 105.633 211.178 103.048C211.178 100.499 209.744 98.5516 207.195 98.5516C205.867 98.5516 204.875 99.1712 204.45 99.9148V98.7463H202.468V110.732H204.504ZM209.124 103.048C209.124 104.695 208.168 105.757 206.805 105.757C205.46 105.757 204.486 104.695 204.486 103.048C204.486 101.437 205.46 100.375 206.805 100.375C208.186 100.375 209.124 101.437 209.124 103.048ZM216.941 105.793C215.684 105.793 214.533 104.836 214.533 103.048C214.533 101.26 215.684 100.34 216.941 100.34C218.216 100.34 219.349 101.26 219.349 103.048C219.349 104.854 218.216 105.793 216.941 105.793ZM216.941 98.4807C214.374 98.4807 212.48 100.41 212.48 103.048C212.48 105.704 214.374 107.634 216.941 107.634C219.526 107.634 221.42 105.704 221.42 103.048C221.42 100.41 219.526 98.4807 216.941 98.4807ZM228.45 98.6932C228.362 98.6755 228.149 98.6401 227.902 98.6401C226.768 98.6401 225.812 99.1889 225.405 100.127V98.7463H223.405V107.368H225.458V103.261C225.458 101.65 226.184 100.729 227.778 100.729C227.99 100.729 228.22 100.747 228.45 100.782V98.6932ZM233.148 96.1084H231.289V97.4008C231.289 98.1621 230.881 98.7463 229.961 98.7463H229.518V100.57H231.112V104.907C231.112 106.518 232.103 107.474 233.696 107.474C234.44 107.474 234.829 107.333 234.953 107.28V105.58C234.865 105.598 234.529 105.651 234.245 105.651C233.484 105.651 233.148 105.332 233.148 104.571V100.57H234.936V98.7463H233.148V96.1084ZM241.58 94.816V107.368H246.218C248.555 107.368 250.113 105.916 250.113 103.898C250.113 102.411 249.192 101.26 247.865 100.906C248.945 100.517 249.724 99.5253 249.724 98.1975C249.724 96.2323 248.307 94.816 245.899 94.816H241.58ZM243.686 100.127V96.6218H245.563C246.855 96.6218 247.599 97.3123 247.599 98.3745C247.599 99.4191 246.855 100.127 245.616 100.127H243.686ZM243.686 105.562V101.915H245.917C247.227 101.915 247.953 102.677 247.953 103.757C247.953 104.872 247.121 105.562 245.846 105.562H243.686ZM257.544 106.412C257.544 106.766 257.579 107.173 257.615 107.368H259.58C259.544 107.049 259.491 106.501 259.491 105.793V98.7463H257.438V103.845C257.438 104.978 256.818 105.775 255.632 105.775C254.393 105.775 253.897 104.872 253.897 103.81V98.7463H251.843V104.181C251.843 106.093 253.047 107.616 255.101 107.616C256.11 107.616 257.119 107.191 257.544 106.412ZM264.186 107.368V98.7463H262.15V107.368H264.186ZM261.831 95.7189C261.831 96.4625 262.433 97.0467 263.159 97.0467C263.902 97.0467 264.504 96.4625 264.504 95.7189C264.504 94.9753 263.902 94.3734 263.159 94.3734C262.433 94.3734 261.831 94.9753 261.831 95.7189ZM268.889 107.368V94.5505H266.835V107.368H268.889ZM272.918 103.031C272.918 101.384 273.91 100.34 275.255 100.34C276.601 100.34 277.521 101.366 277.521 103.013C277.521 104.659 276.583 105.775 275.238 105.775C273.839 105.775 272.918 104.677 272.918 103.031ZM279.504 94.5505H277.504V99.7554C277.238 99.2066 276.477 98.5162 274.972 98.5162C272.547 98.5162 270.865 100.552 270.865 103.031C270.865 105.633 272.529 107.581 275.008 107.581C276.229 107.581 277.132 106.979 277.539 106.253C277.539 106.607 277.592 107.173 277.628 107.368H279.593C279.575 107.227 279.504 106.571 279.504 105.793V94.5505ZM283.622 102.11C283.692 101.189 284.436 100.198 285.728 100.198C287.145 100.198 287.817 101.101 287.853 102.11H283.622ZM288.083 104.358C287.8 105.208 287.162 105.863 285.923 105.863C284.648 105.863 283.622 104.925 283.569 103.615H289.871C289.889 103.58 289.924 103.296 289.924 102.96C289.924 100.233 288.366 98.4807 285.711 98.4807C283.533 98.4807 281.515 100.287 281.515 103.013C281.515 105.934 283.586 107.634 285.923 107.634C287.995 107.634 289.358 106.412 289.818 104.907L288.083 104.358ZM296.932 98.6932C296.844 98.6755 296.631 98.6401 296.384 98.6401C295.251 98.6401 294.295 99.1889 293.887 100.127V98.7463H291.887V107.368H293.94V103.261C293.94 101.65 294.666 100.729 296.26 100.729C296.472 100.729 296.702 100.747 296.932 100.782V98.6932Z" fill="#8843B8"/>
<path d="M223.342 38.6636C223.342 36.2765 225.289 34.3413 227.689 34.3413H254.403C256.804 34.3413 258.75 36.2765 258.75 38.6636V74.2791C258.75 76.6662 256.804 78.6014 254.403 78.6014H227.689C225.289 78.6014 223.342 76.6662 223.342 74.2791V38.6636Z" fill="#8843B8"/>
<path d="M228.785 45.8551C228.785 45.0293 229.454 44.3599 230.28 44.3599H233.27C234.096 44.3599 234.766 45.0293 234.766 45.8551V68.2842H228.785V45.8551Z" fill="#8843B8"/>
<path d="M237.967 52.5837C237.967 51.7578 238.636 51.0884 239.462 51.0884H242.453C243.278 51.0884 243.948 51.7578 243.948 52.5837V68.284H237.967V52.5837Z" fill="#8843B8"/>
<path d="M247.148 46.6032C247.148 45.7774 247.818 45.1079 248.644 45.1079H251.634C252.46 45.1079 253.13 45.7774 253.13 46.6032V68.2846H247.148V46.6032Z" fill="#8843B8"/>
<rect x="80.3491" y="112.176" width="17.0382" height="17.0382" transform="rotate(45 80.3491 112.176)" fill="#8843B8"/>
<rect y="0.29541" width="147.08" height="114.395" rx="6.5293" fill="#149F43"/>
<path d="M57.4501 85.7751V83.7745H47.164V85.7751H51.236V96.3267H53.3605V85.7751H57.4501ZM56.9802 93.9897C56.9802 95.3529 58.0956 96.5922 59.9014 96.5922C61.3 96.5922 62.1498 95.8841 62.557 95.229C62.557 95.9195 62.6278 96.2735 62.6455 96.3267H64.5576C64.5399 96.2381 64.4513 95.7247 64.4513 94.9457V90.6614C64.4513 88.9441 63.4422 87.4392 60.7866 87.4392C58.6621 87.4392 57.3166 88.767 57.1573 90.2542L59.0339 90.6791C59.1224 89.8116 59.7244 89.1211 60.8043 89.1211C61.9374 89.1211 62.4331 89.7054 62.4331 90.4312C62.4331 90.7322 62.2914 90.98 61.7957 91.0509L59.5827 91.3872C58.1133 91.5997 56.9802 92.4495 56.9802 93.9897ZM60.2909 94.9812C59.4765 94.9812 59.0339 94.45 59.0339 93.8658C59.0339 93.1576 59.5473 92.8036 60.1847 92.6973L62.4331 92.361V92.7504C62.4331 94.4323 61.4417 94.9812 60.2909 94.9812ZM68.9345 96.3267V95.1759C69.4302 96.008 70.3685 96.5391 71.5901 96.5391C74.104 96.5391 75.6443 94.574 75.6443 91.9715C75.6443 89.4398 74.2457 87.4746 71.6609 87.4746C70.3331 87.4746 69.3417 88.0943 68.9522 88.767V83.5089H66.9339V96.3267H68.9345ZM73.5729 91.9892C73.5729 93.6888 72.5992 94.7156 71.2537 94.7156C69.9436 94.7156 68.9345 93.6888 68.9345 91.9892C68.9345 90.2719 69.9436 89.2982 71.2537 89.2982C72.6169 89.2982 73.5729 90.2719 73.5729 91.9892ZM79.6722 96.3267V83.5089H77.6186V96.3267H79.6722ZM83.7552 91.0686C83.826 90.148 84.5696 89.1565 85.862 89.1565C87.2783 89.1565 87.9511 90.0594 87.9865 91.0686H83.7552ZM88.2166 93.317C87.9334 94.1668 87.296 94.8218 86.0567 94.8218C84.7821 94.8218 83.7552 93.8835 83.7021 92.5734H90.0047C90.0224 92.538 90.0579 92.2547 90.0579 91.9184C90.0579 89.1919 88.4999 87.4392 85.8443 87.4392C83.6667 87.4392 81.6484 89.2451 81.6484 91.9715C81.6484 94.8926 83.7198 96.5922 86.0567 96.5922C88.1281 96.5922 89.4913 95.3706 89.9516 93.8658L88.2166 93.317ZM91.2591 93.9897C91.3653 94.9635 92.3213 96.5922 94.8176 96.5922C97.0129 96.5922 98.0751 95.1405 98.0751 93.8304C98.0751 92.5557 97.2254 91.5643 95.5966 91.2102L94.2865 90.9446C93.7554 90.8384 93.419 90.502 93.419 90.0417C93.419 89.5106 93.9324 89.0503 94.6583 89.0503C95.809 89.0503 96.1808 89.847 96.2516 90.3427L97.9866 89.847C97.845 88.9972 97.066 87.4392 94.6583 87.4392C92.8702 87.4392 91.4892 88.7139 91.4892 90.2188C91.4892 91.4049 92.2859 92.3964 93.8085 92.7327L95.0832 93.016C95.7736 93.1576 96.0923 93.5117 96.0923 93.972C96.0923 94.5031 95.6497 94.9635 94.7999 94.9635C93.7022 94.9635 93.118 94.273 93.0472 93.494L91.2591 93.9897Z" fill="white"/>
<path d="M54.1597 65.8409C51.6066 65.8409 50.9099 65.1531 50.9096 62.5888C50.9063 39.5925 50.9066 46.7729 50.9094 23.7765C50.9096 21.329 51.6453 20.5812 54.1071 20.5807C77.1219 20.5747 69.9597 20.5747 92.9744 20.5807C95.4018 20.5812 96.1689 21.3584 96.1694 23.7955C96.1738 46.7918 96.1736 39.6114 96.17 62.6077C96.1695 65.1433 95.4508 65.8406 92.89 65.8409C81.3828 65.8422 84.9637 65.8414 73.4565 65.8414C61.9947 65.8414 65.6215 65.8422 54.1597 65.8409ZM92.1207 62.6084C92.5729 62.6084 92.9395 62.2418 92.9395 61.7896V52.9716C92.9395 52.5194 92.5729 52.1528 92.1207 52.1528H83.3027C82.8505 52.1528 82.4839 52.5194 82.4839 52.9716V61.7896C82.4839 62.2418 82.8505 62.6084 83.3027 62.6084H92.1207ZM69.131 62.6084H77.9489C78.4012 62.6084 78.7678 62.2418 78.7678 61.7896V52.9716C78.7678 52.5194 78.4012 52.1528 77.9489 52.1528H69.131C68.6788 52.1528 68.3122 52.5194 68.3122 52.9716V61.7896C68.3122 62.2418 68.6788 62.6084 69.131 62.6084ZM54.9593 62.6084H63.7772C64.2294 62.6084 64.596 62.2418 64.596 61.7896V52.9716C64.596 52.5194 64.2294 52.1528 63.7772 52.1528H54.9593C54.507 52.1528 54.1404 52.5194 54.1404 52.9716V61.7896C54.1404 62.2418 54.507 62.6084 54.9593 62.6084ZM83.3027 48.4367H92.1207C92.5729 48.4367 92.9395 48.0701 92.9395 47.6179V38.7999C92.9395 38.3477 92.5729 37.9811 92.1207 37.9811H83.3027C82.8505 37.9811 82.4839 38.3477 82.4839 38.7999V47.6179C82.4839 48.0701 82.8505 48.4367 83.3027 48.4367ZM69.131 48.4367H77.9489C78.4012 48.4367 78.7678 48.0701 78.7678 47.6179V38.7999C78.7678 38.3477 78.4012 37.9811 77.9489 37.9811H69.131C68.6788 37.9811 68.3122 38.3477 68.3122 38.7999V47.6179C68.3122 48.0701 68.6788 48.4367 69.131 48.4367ZM54.9593 48.4367H63.7772C64.2294 48.4367 64.596 48.0701 64.596 47.6179V38.7999C64.596 38.3477 64.2294 37.9811 63.7772 37.9811H54.9593C54.507 37.9811 54.1404 38.3477 54.1404 38.7999V47.6179C54.1404 48.0701 54.507 48.4367 54.9593 48.4367ZM69.131 34.265H77.9489C78.4012 34.265 78.7678 34.0436 78.7678 33.7705V28.4449C78.7678 28.1718 78.4012 27.9504 77.9489 27.9504H69.131C68.6788 27.9504 68.3122 28.1718 68.3122 28.4449V33.7705C68.3122 34.0436 68.6788 34.265 69.131 34.265ZM83.2765 34.265H92.0944C92.5466 34.265 92.9132 34.0436 92.9132 33.7705V28.4449C92.9132 28.1718 92.5466 27.9504 92.0944 27.9504H83.2765C82.8242 27.9504 82.4576 28.1718 82.4576 28.4449V33.7705C82.4576 34.0436 82.8242 34.265 83.2765 34.265ZM54.9593 34.265H63.7772C64.2294 34.265 64.596 34.0436 64.596 33.7705V28.4449C64.596 28.1718 64.2294 27.9504 63.7772 27.9504H54.9593C54.507 27.9504 54.1404 28.1718 54.1404 28.4449V33.7705C54.1404 34.0436 54.507 34.265 54.9593 34.265Z" fill="white"/>
<rect x="53.4219" y="24.3481" width="40.236" height="38.9786" fill="white"/>
<path d="M82.3408 28.3726C82.3408 27.5393 83.0164 26.8638 83.8497 26.8638H91.4036C92.2369 26.8638 92.9125 27.5393 92.9125 28.3726V32.8992C92.9125 33.7325 92.2369 34.408 91.4036 34.408H83.8497C83.0164 34.408 82.3408 33.7325 82.3408 32.8992V28.3726Z" fill="#FFB629"/>
<path d="M82.3408 39.6885C82.3408 38.8552 83.0164 38.1797 83.8497 38.1797H90.891C91.7243 38.1797 92.3998 38.8552 92.3998 39.6885V46.7298C92.3998 47.5632 91.7243 48.2387 90.891 48.2387H83.8497C83.0164 48.2387 82.3408 47.5632 82.3408 46.7298V39.6885Z" fill="#FFB629"/>
<path d="M82.3408 53.5196C82.3408 52.6863 83.0164 52.0107 83.8497 52.0107H90.891C91.7243 52.0107 92.3998 52.6863 92.3998 53.5196V60.5609C92.3998 61.3942 91.7243 62.0697 90.891 62.0697H83.8497C83.0164 62.0697 82.3408 61.3942 82.3408 60.5609V53.5196Z" fill="#FFB629"/>
<path d="M68.312 28.3726C68.312 27.5393 68.9875 26.8638 69.8208 26.8638H77.5723C78.4056 26.8638 79.0811 27.5393 79.0811 28.3726V32.8992C79.0811 33.7325 78.4056 34.408 77.5723 34.408H69.8208C68.9875 34.408 68.312 33.7325 68.312 32.8992V28.3726Z" fill="#FF6100"/>
<path d="M68.5088 39.6885C68.5088 38.8552 69.1843 38.1797 70.0176 38.1797H77.0589C77.8923 38.1797 78.5678 38.8552 78.5678 39.6885V46.7298C78.5678 47.5632 77.8923 48.2387 77.0589 48.2387H70.0176C69.1843 48.2387 68.5088 47.5632 68.5088 46.7298V39.6885Z" fill="#FF6100"/>
<path d="M68.5088 53.5196C68.5088 52.6863 69.1843 52.0107 70.0176 52.0107H77.0589C77.8923 52.0107 78.5678 52.6863 78.5678 53.5196V60.5609C78.5678 61.3942 77.8923 62.0697 77.0589 62.0697H70.0176C69.1843 62.0697 68.5088 61.3942 68.5088 60.5609V53.5196Z" fill="#FF6100"/>
<path d="M54.0488 28.3726C54.0488 27.5393 54.7244 26.8638 55.5577 26.8638H63.2277C64.061 26.8638 64.7365 27.5393 64.7365 28.3726V32.8992C64.7365 33.7325 64.061 34.408 63.2277 34.408H55.5577C54.7244 34.408 54.0488 33.7325 54.0488 32.8992V28.3726Z" fill="#0099FF"/>
<path d="M54.0488 39.6885C54.0488 38.8552 54.7244 38.1797 55.5577 38.1797H63.2277C64.061 38.1797 64.7365 38.8552 64.7365 39.6885V46.7298C64.7365 47.5632 64.061 48.2387 63.2277 48.2387H55.5577C54.7244 48.2387 54.0488 47.5632 54.0488 46.7298V43.2092V39.6885Z" fill="#0099FF"/>
<path d="M54.0488 53.5196C54.0488 52.6863 54.7244 52.0107 55.5577 52.0107H63.2277C64.061 52.0107 64.7365 52.6863 64.7365 53.5196V60.5609C64.7365 61.3942 64.061 62.0697 63.2277 62.0697H55.5577C54.7244 62.0697 54.0488 61.3942 54.0488 60.5609V57.0402V53.5196Z" fill="#0099FF"/>
<rect x="159.336" y="0.29541" width="147.08" height="114.395" rx="6.5293" fill="#526196"/>
<path d="M181.757 97.835H184.164L181.332 92.6654C183.084 92.2405 184.164 90.8773 184.164 89.0892C184.164 86.9647 182.66 85.2828 180.234 85.2828H175.419V97.835H177.561V92.8778H179.119L181.757 97.835ZM177.561 91.0012V87.1594H179.845C181.155 87.1594 182.005 87.9207 182.005 89.0892C182.005 90.2399 181.155 91.0012 179.845 91.0012H177.561ZM187.395 92.5769C187.466 91.6563 188.209 90.6648 189.502 90.6648C190.918 90.6648 191.591 91.5677 191.626 92.5769H187.395ZM191.856 94.8253C191.573 95.6751 190.936 96.3301 189.696 96.3301C188.422 96.3301 187.395 95.3918 187.342 94.0817H193.644C193.662 94.0463 193.697 93.763 193.697 93.4267C193.697 90.7002 192.14 88.9475 189.484 88.9475C187.306 88.9475 185.288 90.7534 185.288 93.4798C185.288 96.4009 187.359 98.1005 189.696 98.1005C191.768 98.1005 193.131 96.8789 193.591 95.3741L191.856 94.8253ZM197.696 101.199V96.8612C198.139 97.5163 199.077 98.0474 200.316 98.0474C202.795 98.0474 204.37 96.1 204.37 93.5152C204.37 90.9658 202.936 89.0184 200.387 89.0184C199.059 89.0184 198.068 89.638 197.643 90.3816V89.2131H195.66V101.199H197.696ZM202.317 93.5152C202.317 95.1617 201.361 96.2239 199.997 96.2239C198.652 96.2239 197.678 95.1617 197.678 93.5152C197.678 91.9041 198.652 90.8419 199.997 90.8419C201.378 90.8419 202.317 91.9041 202.317 93.5152ZM210.133 96.2593C208.876 96.2593 207.726 95.3033 207.726 93.5152C207.726 91.7271 208.876 90.8065 210.133 90.8065C211.408 90.8065 212.541 91.7271 212.541 93.5152C212.541 95.321 211.408 96.2593 210.133 96.2593ZM210.133 88.9475C207.566 88.9475 205.672 90.8773 205.672 93.5152C205.672 96.1708 207.566 98.1005 210.133 98.1005C212.718 98.1005 214.612 96.1708 214.612 93.5152C214.612 90.8773 212.718 88.9475 210.133 88.9475ZM221.643 89.16C221.554 89.1423 221.342 89.1069 221.094 89.1069C219.961 89.1069 219.005 89.6557 218.598 90.594V89.2131H216.597V97.835H218.651V93.7276C218.651 92.1166 219.377 91.196 220.97 91.196C221.182 91.196 221.413 91.2137 221.643 91.2491V89.16ZM226.34 86.5752H224.481V87.8676C224.481 88.6289 224.074 89.2131 223.153 89.2131H222.711V91.0366H224.304V95.3741C224.304 96.9852 225.295 97.9412 226.889 97.9412C227.632 97.9412 228.022 97.7996 228.146 97.7464V96.0469C228.057 96.0646 227.721 96.1177 227.438 96.1177C226.676 96.1177 226.34 95.799 226.34 95.0377V91.0366H228.128V89.2131H226.34V86.5752ZM234.772 85.2828V97.835H239.411C241.747 97.835 243.305 96.3832 243.305 94.365C243.305 92.8778 242.385 91.7271 241.057 91.373C242.137 90.9835 242.916 89.9921 242.916 88.6643C242.916 86.6991 241.5 85.2828 239.092 85.2828H234.772ZM236.879 90.594V87.0886H238.755C240.048 87.0886 240.791 87.7791 240.791 88.8413C240.791 89.8859 240.048 90.594 238.809 90.594H236.879ZM236.879 96.0292V92.3821H239.11C240.42 92.3821 241.146 93.1434 241.146 94.2233C241.146 95.3387 240.313 96.0292 239.039 96.0292H236.879ZM250.736 96.8789C250.736 97.233 250.772 97.6402 250.807 97.835H252.772C252.737 97.5163 252.684 96.9675 252.684 96.2593V89.2131H250.63V94.3119C250.63 95.4449 250.01 96.2416 248.824 96.2416C247.585 96.2416 247.089 95.3387 247.089 94.2765V89.2131H245.036V94.6482C245.036 96.5603 246.239 98.0828 248.293 98.0828C249.302 98.0828 250.311 97.6579 250.736 96.8789ZM257.378 97.835V89.2131H255.342V97.835H257.378ZM255.023 86.1857C255.023 86.9293 255.625 87.5135 256.351 87.5135C257.095 87.5135 257.697 86.9293 257.697 86.1857C257.697 85.4421 257.095 84.8402 256.351 84.8402C255.625 84.8402 255.023 85.4421 255.023 86.1857ZM262.081 97.835V85.0172H260.027V97.835H262.081ZM266.111 93.4975C266.111 91.851 267.102 90.8065 268.448 90.8065C269.793 90.8065 270.714 91.8333 270.714 93.4798C270.714 95.1262 269.776 96.2416 268.43 96.2416C267.031 96.2416 266.111 95.1439 266.111 93.4975ZM272.697 85.0172H270.696V90.2222C270.431 89.6734 269.669 88.9829 268.164 88.9829C265.739 88.9829 264.057 91.0189 264.057 93.4975C264.057 96.1 265.721 98.0474 268.2 98.0474C269.421 98.0474 270.324 97.4455 270.732 96.7196C270.732 97.0737 270.785 97.6402 270.82 97.835H272.785C272.768 97.6933 272.697 97.0383 272.697 96.2593V85.0172ZM276.814 92.5769C276.885 91.6563 277.628 90.6648 278.921 90.6648C280.337 90.6648 281.01 91.5677 281.045 92.5769H276.814ZM281.275 94.8253C280.992 95.6751 280.355 96.3301 279.116 96.3301C277.841 96.3301 276.814 95.3918 276.761 94.0817H283.064C283.081 94.0463 283.117 93.763 283.117 93.4267C283.117 90.7002 281.559 88.9475 278.903 88.9475C276.725 88.9475 274.707 90.7534 274.707 93.4798C274.707 96.4009 276.779 98.1005 279.116 98.1005C281.187 98.1005 282.55 96.8789 283.01 95.3741L281.275 94.8253ZM290.125 89.16C290.036 89.1423 289.824 89.1069 289.576 89.1069C288.443 89.1069 287.487 89.6557 287.08 90.594V89.2131H285.079V97.835H287.133V93.7276C287.133 92.1166 287.859 91.196 289.452 91.196C289.665 91.196 289.895 91.2137 290.125 91.2491V89.16Z" fill="white"/>
<path d="M216.533 29.1309C216.533 26.7437 218.479 24.8086 220.88 24.8086H247.594C249.995 24.8086 251.941 26.7437 251.941 29.1309V64.7464C251.941 67.1335 249.995 69.0687 247.594 69.0687H220.88C218.479 69.0687 216.533 67.1335 216.533 64.7464V29.1309Z" fill="white"/>
<path d="M221.976 36.3219C221.976 35.4961 222.645 34.8267 223.471 34.8267H226.461C227.287 34.8267 227.957 35.4961 227.957 36.3219V58.751H221.976V36.3219Z" fill="#526196"/>
<path d="M231.157 43.0504C231.157 42.2246 231.827 41.5552 232.652 41.5552H235.643C236.469 41.5552 237.138 42.2246 237.138 43.0504V58.7508H231.157V43.0504Z" fill="#526196"/>
<path d="M240.339 37.0695C240.339 36.2437 241.009 35.5742 241.835 35.5742H244.825C245.651 35.5742 246.32 36.2437 246.32 37.0695V58.7509H240.339V37.0695Z" fill="#526196"/>
<rect x="73.5405" y="102.643" width="17.0382" height="17.0382" transform="rotate(45 73.5405 102.643)" fill="#149F43"/>
</svg>
