<svg width="1489" height="749" viewBox="0 0 1489 749" fill="none" xmlns="http://www.w3.org/2000/svg">
<path fill-rule="evenodd" clip-rule="evenodd" d="M1467.18 39.6139C1296 -48.2109 1145.55 27.4733 1048.25 97.8857C1023.64 115.697 1001.79 133.609 983.344 149.07C978.801 152.878 974.548 156.466 970.552 159.836C968.476 161.588 966.47 163.28 964.529 164.914C961.967 159.337 958.151 153.556 952.416 148.503C937.955 135.761 920.916 135.638 909.826 138.154C899.796 140.43 891.462 145.307 885.872 149.046C874.308 156.781 862.236 168.149 851.479 178.954C842.233 188.24 832.318 198.809 822.698 209.065C820.73 211.163 818.774 213.248 816.838 215.307C805.134 227.755 793.959 239.466 783.592 249.311C782.779 250.083 781.982 250.833 781.2 251.561C779.243 245.301 776.435 239.099 772.395 233.402C766.922 225.683 759.157 218.884 749.006 214.885C739.183 211.016 729.689 210.773 721.979 211.85C706.565 213.969 693.206 222.113 684.927 227.648C675.561 233.908 665.818 241.714 657.323 248.549C640.237 262.295 627.51 272.362 617.44 277.552C615.741 272.658 613.806 265.017 612.277 253.568C609.991 236.459 608.887 213.088 609.694 181.764L609.694 181.757C610.142 164.258 609.701 148.848 608.095 135.768C606.58 123.432 603.65 109.648 596.843 97.8309C589.068 84.3327 574.345 71.0019 552.55 70.4906C534.933 70.0773 520.999 78.5961 512.94 84.5391C496.054 96.9919 478.855 118.128 462.582 140.506C445.516 163.975 426.473 193.119 406.171 225.089C395.173 242.407 383.77 260.607 371.997 279.398L371.995 279.401C352.149 311.077 331.249 344.435 309.461 378.085C293.809 376.948 279.17 376.071 266.441 375.309L266.438 375.308C260.483 374.952 254.945 374.62 249.917 374.299C246.583 374.085 243.491 373.878 240.633 373.672C258.644 344.471 280.686 305.689 296.046 268.275C305.498 245.252 313.6 219.98 315.431 196.41C317.208 173.538 313.533 142.199 286.751 121.788C271.503 110.146 254.009 104.813 236.068 105.657C219.06 106.458 204.09 112.662 192.055 119.822C168.579 133.787 148.422 156.141 133.663 175.144L133.656 175.154C108.235 207.866 89.2958 244.701 76.9416 283.76L76.9377 283.772C56.509 348.22 15.6085 484.951 3.54838 585.175C0.511429 610.413 -0.919875 634.993 0.745391 656.367C2.27269 675.97 6.88633 700.84 23.0044 719.007C32.0011 729.147 44.0772 736.568 58.6248 739.277C72.4928 741.859 85.8155 739.658 97.404 735.679C119.643 728.044 142.881 711.293 167.153 688.983L167.164 688.973C225.23 635.563 281.879 561.003 333.342 485.539C338.847 477.466 344.316 469.348 349.742 461.209C391.373 465.577 435.988 472.474 476.884 484.327C531.552 500.171 572.82 522.975 594.407 553.627C613.83 581.207 622.903 623.43 593.928 694.049C585.616 714.308 595.301 737.469 615.56 745.782C635.819 754.094 658.981 744.409 667.293 724.15C703.301 636.389 698.616 563.875 659.242 507.967C622.032 455.131 559.464 425.697 498.958 408.161C465.709 398.525 431.018 391.904 397.814 387.209C412.412 364.261 426.5 341.774 439.931 320.337L439.938 320.325C451.517 301.844 462.607 284.144 473.113 267.6C493.294 235.821 511.215 208.464 526.717 187.145C527.963 185.433 529.177 183.781 530.36 182.19C529.604 214.882 530.719 241.948 533.675 264.071C536.647 286.315 541.786 306.044 550.633 321.875C560.009 338.651 574.56 352.535 594.975 357.634C613.894 362.358 631.312 357.822 643.832 352.655C665.92 343.539 688.199 325.543 703.741 312.989L703.758 312.975C704.886 312.064 705.978 311.182 707.032 310.334C708.268 309.34 709.468 308.377 710.633 307.445C711.173 309.174 711.775 310.887 712.443 312.578C716.451 322.717 723.794 334.225 736.847 341.65C763.143 356.607 789.226 343.457 799.604 337.403C813.035 329.568 826.411 318.007 838.198 306.814C850.368 295.257 862.917 282.065 874.611 269.629C876.689 267.418 878.736 265.236 880.753 263.086L880.81 263.026L880.815 263.02C886.341 257.131 891.64 251.483 896.729 246.156C902.286 256.217 912.097 266.188 928.201 269.399C944.905 272.73 959.001 266.138 964.947 263.112C972.56 259.238 980.081 254.006 986.797 248.949C997.228 241.095 1009.77 230.514 1023.01 219.341C1026.72 216.205 1030.49 213.022 1034.29 209.839C1052.26 194.773 1072.42 178.281 1094.74 162.129C1185.18 96.6849 1301.13 43.5488 1430.98 110.169C1450.46 120.166 1474.36 112.475 1484.35 92.9915C1494.35 73.5081 1486.66 49.6101 1467.18 39.6139ZM928.98 192.438C927.925 192.975 928.02 192.79 929.045 192.405L928.98 192.438ZM931.234 214.179C931.233 214.182 931.173 214.215 931.057 214.272C931.176 214.205 931.235 214.176 931.234 214.179ZM244.855 453.437C249.253 453.718 253.838 453.996 258.607 454.283C210.828 523.327 161.561 586.38 113.491 630.598C98.8602 644.045 87.9937 651.96 80.4593 656.394C80.2141 654.607 79.9886 652.554 79.8058 650.207C78.7157 636.216 79.5381 617.439 82.2804 594.649C93.3368 502.766 131.959 372.631 152.535 307.722L152.543 307.695C162.192 277.182 176.861 248.79 196.278 223.805L196.286 223.795C209.263 207.086 222.086 194.228 232.597 187.975C234.179 187.033 235.489 186.376 236.537 185.918C236.548 187.081 236.505 188.516 236.369 190.266C235.482 201.683 230.956 218.017 222.687 238.158C206.388 277.86 180.096 321.671 161.621 350.292C137.715 387.252 156.963 435.621 197.97 447.707L198.048 447.73C205.042 449.775 213.178 450.799 219.744 451.477C227.017 452.228 235.612 452.846 244.855 453.437ZM70.0274 661.136C70.0274 661.136 70.0438 661.132 70.0756 661.128C70.0431 661.134 70.0274 661.136 70.0274 661.136ZM236.179 182.04C236.047 181.77 236.007 181.606 236.02 181.592C236.032 181.578 236.098 181.713 236.179 182.04ZM561.236 147.553C561.233 147.568 561.063 147.681 560.734 147.849C561.074 147.623 561.239 147.539 561.236 147.553ZM610.543 280.359C610.543 280.359 610.576 280.352 610.639 280.344C610.574 280.357 610.543 280.359 610.543 280.359Z" fill="#FFB629" fill-opacity="0.15"/>
</svg>
